<svg width="49" height="47" viewBox="0 0 49 47" fill="none" xmlns="http://www.w3.org/2000/svg">
<path d="M22.5979 1.85411C23.1966 0.0114865 25.8034 0.0114813 26.4021 1.8541L30.6741 15.002C30.9419 15.8261 31.7098 16.384 32.5762 16.384H46.4008C48.3382 16.384 49.1438 18.8632 47.5764 20.002L36.3921 28.1279C35.6911 28.6372 35.3978 29.5399 35.6655 30.364L39.9375 43.5119C40.5363 45.3545 38.4273 46.8868 36.8599 45.748L25.6756 37.6221C24.9746 37.1128 24.0254 37.1128 23.3244 37.6221L12.1401 45.748C10.5727 46.8868 8.46374 45.3545 9.06245 43.5119L13.3345 30.364C13.6022 29.5399 13.3089 28.6372 12.6079 28.1279L1.42363 20.002C-0.143794 18.8632 0.661754 16.384 2.5992 16.384H16.4238C17.2902 16.384 18.0581 15.8261 18.3259 15.002L22.5979 1.85411Z" fill="#FFD336"/>
</svg>
